<svg width="172" height="172" viewBox="0 0 172 172" fill="none" xmlns="http://www.w3.org/2000/svg">
<path d="M93.5957 73L121.596 101.5L82.5957 140.5" stroke="#fff" stroke-width="7"/>
<path d="M76.5957 109L58.5957 91.5L95.5957 54.5L135.096 93.5" stroke="#fff" stroke-width="7"/>
<path d="M87.5957 42L38.0957 91.5L74.0957 127.5L102.596 99" stroke="#fff" stroke-width="7"/>
<path d="M148.61 101.628L96.4635 153.775C90.4103 159.828 80.5963 159.828 74.5431 153.775L22.9811 102.213C16.9108 96.1429 16.9306 86.2949 23.0251 80.249L43.6266 59.8119C46.5487 56.9131 47.3578 52.5018 45.6546 48.7547C45.5581 48.5425 45.5542 48.2996 45.6439 48.0844L46.4436 46.165C46.7387 45.4568 47.1759 44.8165 47.7281 44.2838L74.8403 18.1285C80.8433 12.3373 90.3528 12.3352 96.3584 18.1237L122.254 43.0831C122.944 43.7488 123.491 44.5492 123.86 45.4346L124.687 47.4185C124.775 47.6308 124.787 47.8672 124.721 48.0875C123.672 51.5859 124.614 55.3783 127.179 57.9787L148.685 79.784C154.667 85.849 154.634 95.6048 148.61 101.628Z" stroke="#fff" stroke-width="9"/>
<rect x="85.6143" y="84.9927" width="9" height="9" transform="rotate(45.886 85.6143 84.9927)" fill="#fff"/>
</svg>
