<svg width="165" height="168" viewBox="0 0 165 168" fill="none" xmlns="http://www.w3.org/2000/svg">
<rect x="-0.000854492" y="157.5" width="142" height="10" rx="4" fill="#1F1F1F"/>
<path d="M158.999 5H82.309C82.1072 5 81.9101 5.06107 81.7436 5.17518L19.9991 47.5C15.6658 50.5 7.79915 58.1 10.9991 64.5C14.9991 72.5 20.4991 72.5 22.9991 72.5C25.4991 72.5 29.4991 71.5 58.4991 54C87.4991 36.5 77.1127 40.8892 81.9991 41.5C85.3223 41.9154 91.0613 43.1361 94.9153 43.7284C95.748 43.8564 96.1201 44.8917 95.5293 45.4923C83.4534 57.7657 61.6606 80.313 65.4991 83C69.4991 85.8 74.1658 86.5 75.9991 86.5C82.4991 86 96.2991 83.6 99.4991 78C103.499 71 106.499 70.5 108.999 69C111.308 67.6147 122.999 66 125.999 66C128.348 66 135.679 62.168 139.271 60.13C139.422 60.0441 139.591 60 139.765 60H158.999C159.551 60 159.999 59.5523 159.999 59V6C159.999 5.44772 159.551 5 158.999 5Z" stroke="#1F1F1F" stroke-width="10"/>
<rect x="136.999" y="6" width="9" height="53" fill="#1F1F1F"/>
</svg>
