<svg width="165" height="198" viewBox="0 0 165 198" fill="none" xmlns="http://www.w3.org/2000/svg">
<path d="M138 157.5H4C1.79086 157.5 0 159.291 0 161.5V163.5C0 165.709 1.79086 167.5 4 167.5H138C140.209 167.5 142 165.709 142 163.5V161.5C142 159.291 140.209 157.5 138 157.5Z" fill="white"/>
<path d="M50.8901 102.094L119.424 127.432C120.196 127.718 120.594 128.571 120.316 129.345L108.983 161.006C108.77 161.602 108.204 162 107.571 162H29.515C28.4728 162 27.7482 160.963 28.1063 159.985L48.9612 102.986C49.2466 102.206 50.1112 101.806 50.8901 102.094Z" stroke="white" stroke-width="11"/>
<path d="M159 5H82.3098C82.108 5 81.9109 5.06107 81.7444 5.17518L20 47.5C15.6667 50.5 7.8 58.1 11 64.5C15 72.5 20.5 72.5 23 72.5C25.5 72.5 29.5 71.5 58.5 54C87.5 36.5 77.1136 40.8892 82 41.5C85.3232 41.9154 91.0621 43.1361 94.9161 43.7284C95.7489 43.8564 96.121 44.8917 95.5301 45.4923C83.4543 57.7657 61.6615 80.313 65.5 83C69.5 85.8 74.1666 86.5 76 86.5C82.5 86 96.3 83.6 99.5 78C103.5 71 106.5 70.5 109 69C111.309 67.6147 123 66 126 66C128.349 66 135.68 62.168 139.272 60.13C139.423 60.0441 139.592 60 139.766 60H159C159.552 60 160 59.5523 160 59V6C160 5.44772 159.552 5 159 5Z" stroke="white" stroke-width="9"/>
<path d="M146 6H137V59H146V6Z" fill="white"/>
</svg>
